<?xml version="1.0" standalone="no"?>
<!DOCTYPE svg PUBLIC "-//W3C//DTD SVG 20010904//EN"
 "http://www.w3.org/TR/2001/REC-SVG-20010904/DTD/svg10.dtd">
<svg version="1.0" xmlns="http://www.w3.org/2000/svg"
 width="900.000000pt" height="900.000000pt" viewBox="0 0 900.000000 900.000000"
 preserveAspectRatio="xMidYMid meet">
<metadata>
Created by potrace 1.11, written by Peter Selinger 2001-2013
</metadata>
<g transform="translate(0.000000,900.000000) scale(0.100000,-0.100000)"
fill="#000000" stroke="none">
<path d="M4360 8565 c-8 -2 -60 -11 -115 -20 -211 -36 -454 -135 -634 -257
-287 -196 -538 -491 -698 -818 -36 -74 -69 -143 -74 -152 -16 -32 -85 -234
-112 -328 -36 -124 -86 -381 -102 -522 -4 -32 -10 -58 -15 -58 -5 0 -35 41
-67 91 -173 271 -283 410 -453 575 -87 84 -206 184 -288 242 -26 19 -66 49
-89 68 -39 32 -126 88 -207 133 -51 29 -162 61 -210 61 -25 0 -60 -6 -78 -14
-18 -8 -49 -21 -68 -29 -19 -8 -78 -29 -130 -47 -90 -30 -177 -70 -298 -137
-29 -16 -107 -83 -175 -148 -96 -94 -131 -136 -162 -194 -22 -41 -55 -102 -72
-135 -18 -33 -33 -66 -33 -73 0 -7 -10 -36 -23 -65 -13 -29 -29 -80 -36 -113
-7 -33 -17 -78 -23 -100 -44 -178 -49 -227 -46 -450 4 -224 14 -294 56 -397
26 -64 105 -104 195 -100 32 2 110 75 133 125 8 18 18 39 23 47 5 8 17 35 26
60 9 25 21 53 26 62 5 10 9 25 9 34 0 9 7 30 16 47 30 57 34 67 34 79 0 12 10
33 89 184 17 34 46 76 64 94 27 28 37 31 68 27 54 -7 182 -74 288 -151 50 -36
96 -66 101 -66 16 0 223 -205 251 -249 16 -24 50 -67 76 -95 26 -28 53 -59 58
-68 6 -9 34 -51 64 -94 63 -93 227 -425 266 -539 16 -44 31 -84 35 -90 20 -30
70 -207 70 -250 0 -13 4 -26 9 -30 6 -3 13 -27 17 -53 3 -26 10 -54 15 -63 4
-9 13 -43 18 -75 6 -32 20 -110 31 -172 22 -121 23 -81 -10 -577 -20 -300 17
-694 96 -1025 8 -36 19 -83 24 -106 5 -22 13 -51 18 -65 5 -13 17 -51 27 -84
57 -196 247 -611 340 -740 11 -16 35 -54 53 -82 34 -56 70 -98 79 -90 3 3 -9
50 -26 104 -50 158 -81 274 -81 298 0 12 -4 35 -10 51 -11 32 -47 262 -62 394
-12 107 -3 721 11 775 6 22 20 101 31 175 78 526 223 959 444 1333 25 43 46
80 46 83 0 21 151 220 258 342 72 81 102 95 135 64 12 -11 45 -34 73 -51 50
-30 54 -31 172 -31 66 0 123 4 126 9 12 19 -23 29 -115 33 -74 4 -107 10 -143
29 -203 101 -388 446 -426 794 -5 44 -14 96 -21 117 -7 23 -9 59 -5 100 4 34
11 108 16 163 12 158 44 283 96 388 8 16 14 32 14 37 0 4 17 37 38 73 55 93
162 223 200 241 17 9 32 20 32 25 0 5 24 17 53 26 28 9 60 20 69 25 9 5 19 6
22 2 2 -4 60 -6 129 -6 l124 2 61 -42 c62 -43 142 -112 142 -121 0 -3 20 -30
45 -61 25 -30 45 -61 45 -69 0 -8 4 -15 8 -15 4 0 23 -33 41 -72 18 -40 37
-81 42 -90 11 -22 69 -255 69 -279 0 -22 -15 -25 -23 -6 -3 7 -33 18 -67 25
-87 16 -130 -2 -176 -73 -122 -192 -84 -569 69 -669 15 -10 27 -25 27 -32 0
-8 5 -14 10 -14 6 0 10 4 10 9 0 6 68 9 168 9 194 -1 208 3 303 94 76 72 94
125 94 274 0 132 -11 157 -52 124 -44 -35 -60 -27 -93 47 -45 99 -46 108 -15
137 26 24 26 25 6 35 -27 15 -104 14 -119 -1 -23 -23 -22 -1 2 43 39 74 49 91
89 142 20 27 37 53 37 58 0 5 6 9 13 9 8 0 33 18 56 41 50 47 133 91 212 113
31 9 59 23 63 31 4 12 25 15 99 15 100 0 117 -5 89 -26 -15 -12 -12 -13 21
-14 43 0 144 -27 152 -40 3 -4 24 -18 48 -29 54 -27 167 -134 167 -160 0 -5 9
-15 19 -21 23 -12 91 -135 91 -165 0 -11 6 -30 14 -41 8 -11 16 -38 18 -60 2
-21 8 -42 13 -46 15 -11 13 -260 -2 -266 -7 -2 -13 -20 -13 -39 0 -20 -13 -65
-30 -100 -16 -34 -30 -66 -30 -71 0 -14 -120 -175 -142 -190 -13 -9 -25 -19
-28 -23 -3 -4 -21 -18 -40 -31 -30 -20 -65 -38 -192 -100 -10 -4 -56 -8 -103
-8 -69 0 -87 -3 -92 -16 -10 -26 17 -34 123 -34 117 0 114 2 262 -142 150
-146 279 -308 360 -454 160 -289 251 -494 322 -724 59 -192 66 -216 84 -305
10 -44 21 -96 26 -115 9 -37 53 -341 65 -448 6 -55 10 -64 36 -77 15 -8 37
-15 48 -15 11 0 23 -5 26 -10 4 -6 36 -24 71 -41 35 -17 97 -54 138 -84 84
-60 86 -60 104 25 37 173 53 445 50 850 -3 317 -1 376 15 450 50 245 113 483
143 540 7 14 25 59 40 100 43 120 212 457 278 555 34 49 79 108 101 132 22 23
51 59 65 79 36 53 189 212 230 240 19 13 80 55 135 93 55 39 125 82 155 97 30
14 67 33 82 40 46 24 80 18 119 -23 33 -35 137 -233 154 -293 4 -14 16 -45 27
-70 11 -25 26 -60 34 -78 8 -18 14 -41 14 -51 0 -10 10 -33 23 -52 12 -19 29
-49 37 -68 18 -45 47 -74 98 -101 51 -26 91 -22 156 17 54 33 62 46 88 141 52
197 52 535 -2 717 -5 17 -16 66 -25 110 -15 80 -25 112 -51 172 -8 17 -14 37
-14 45 -1 22 -98 206 -150 283 -38 55 -209 222 -262 255 -37 23 -128 75 -178
101 -25 13 -82 35 -140 54 -64 20 -197 71 -222 85 -52 29 -192 -6 -320 -80
-218 -124 -614 -464 -738 -633 -19 -27 -58 -78 -86 -115 -43 -57 -90 -126
-141 -207 -7 -11 -23 -40 -36 -65 -38 -73 -68 -120 -78 -120 -11 0 -17 28 -23
115 -10 132 -46 402 -66 500 -38 177 -61 258 -112 400 -94 257 -217 487 -369
683 -69 90 -238 260 -339 341 -221 179 -412 268 -735 347 -64 15 -363 30 -405
19z m395 -246 c90 -15 181 -38 265 -66 78 -26 245 -107 268 -130 8 -7 23 -18
34 -24 37 -20 132 -101 148 -125 8 -13 18 -24 22 -24 21 0 138 -164 138 -194
0 -8 7 -22 16 -31 9 -9 18 -37 20 -63 9 -110 -17 -136 -146 -140 -329 -11
-787 -12 -965 -3 -237 12 -214 8 -395 57 -120 32 -153 36 -295 41 -142 5 -170
3 -242 -16 -45 -11 -112 -24 -150 -27 -67 -6 -69 -6 -81 20 -7 15 -12 37 -12
50 0 39 56 161 101 223 51 68 158 175 213 212 22 14 51 34 65 43 76 51 227
121 285 134 17 3 36 10 41 14 16 11 132 38 220 49 44 6 94 13 110 15 46 6 273
-4 340 -15z m-814 -893 c111 -24 228 -96 294 -182 39 -51 43 -64 20 -64 -8 0
-15 4 -15 10 0 15 -138 88 -210 111 -124 39 -273 27 -395 -32 -38 -18 -52 -27
-121 -74 -16 -10 -57 -47 -92 -82 -63 -64 -76 -71 -87 -53 -11 18 74 156 130
213 53 53 163 127 189 127 7 0 16 3 20 8 30 30 167 39 267 18z m-1 -225 c0
-12 -67 -19 -128 -13 -84 8 -60 22 38 22 50 0 90 -4 90 -9z m1419 -33 c140
-45 232 -127 215 -193 -6 -22 -45 -42 -63 -30 -5 2 -69 7 -142 11 -74 3 -137
8 -140 10 -6 4 -167 -11 -293 -26 -75 -10 -91 -9 -104 3 -21 22 1 82 39 104
16 10 29 21 29 25 0 13 84 65 140 86 64 23 259 30 319 10z m-936 -786 c27 -32
50 -116 43 -156 -7 -38 -40 -64 -68 -53 -16 5 -88 176 -88 207 0 41 77 43 113
2z"/>
<path d="M6352 2038 c-9 -12 -30 -92 -47 -178 -4 -19 -25 -88 -46 -152 -45
-135 -47 -148 -18 -122 50 45 269 413 269 452 0 17 -144 16 -158 0z"/>
</g>
</svg>
